# xmcd CD database file
#
# Track frame offsets:
#	150
#	4126
#	7101
#	15984
#	18029
#	48446
#	75479
#	101210
#	118695
#	142197
#	144023
#	165457
#	198102
#	219372
#
# Disc length: 3310 seconds
#
# Revision: 1
# Processed by: cddbd v1.5.1PL2 Copyright (c) Steve Scherf et al.
# Submitted via: CDex 1.51
#
DISCID=a70cec0e
DTITLE=Billy Kilson's B.K. Groove - Pots and Pans
DYEAR=2006
DGENRE=Jazz
TTITLE0=Groovements: Call
TTITLE1=Groovements: Premier Jour
TTITLE2=Groovements: a Camelot
TTITLE3=Groovements: Prelude (Fuyu Hanani)
TTITLE4=Fuyu Hanani
TTITLE5=Rabbit Kat
TTITLE6=Bibi No Aozora
TTITLE7=Guardian Soul
TTITLE8=Aye (forever eternal love)
TTITLE9=Ji Ji
TTITLE10=Leftside
TTITLE11=Indiescission
TTITLE12=Darkness Rising
TTITLE13=Nuevo "Dingwalls"
EXTD=YEAR: 2006
EXTT0=
EXTT1=
EXTT2=
EXTT3=
EXTT4=
EXTT5=
EXTT6=
EXTT7=
EXTT8=
EXTT9=
EXTT10=
EXTT11=
EXTT12=
EXTT13=
PLAYORDER=
